<svg width="21" height="30" viewBox="0 0 21 30" fill="none" xmlns="http://www.w3.org/2000/svg">
<g clip-path="url(#clip0_406_1540)">
<path fill-rule="evenodd" clip-rule="evenodd" d="M20.677 21.6136C20.4172 20.958 19.9616 20.6457 19.1061 20.0612L19.071 20.0375C18.4144 19.5881 17.9598 18.9758 17.8794 17.7337C17.831 16.9544 17.8825 16.3184 17.9413 15.6103C18.0031 14.8496 18.0732 14.0033 18.0309 12.8035C17.9701 11.0243 17.364 9.67397 16.9898 8.88129C16.5466 7.95976 16.4652 7.2949 16.4353 6.22288C16.4215 5.47392 16.4191 4.72479 16.4281 3.97576C16.4312 3.30884 16.4343 2.7017 16.425 2.39762C16.4044 1.72245 16.1425 1.2823 15.7086 1.05759C15.1726 0.789585 14.6077 0.875141 14.1222 1.4328C13.6789 1.94716 12.8801 2.84704 12.3348 3.38305C11.6184 4.07987 11.1535 4.24067 10.5175 4.24067C9.88151 4.24067 9.42694 4.09018 8.6992 3.38305C8.15494 2.85735 7.34577 1.94716 6.91181 1.4328C6.42733 0.886479 5.86143 0.799893 5.32645 1.05759C4.88218 1.272 4.62964 1.71111 4.59974 2.39762C4.58943 2.70686 4.59356 3.31708 4.59665 3.98504C4.60077 4.79936 4.60593 5.69821 4.58944 6.23422C4.55851 7.30624 4.47811 7.95976 4.03384 8.8916C3.65966 9.68531 3.05459 11.0253 2.99274 12.8148C2.95151 14.0146 3.02057 14.8599 3.08345 15.6216C3.14117 16.3298 3.19374 16.9648 3.1453 17.7451C3.06386 18.9872 2.60929 19.5984 1.9537 20.0489L1.86712 20.1087C1.05279 20.6704 0.601305 20.9817 0.347731 21.6239C0.166311 22.095 0.166311 22.7702 0.701292 23.0598C1.04455 23.2423 1.45892 23.2103 1.88258 23.0279C1.9671 22.9928 2.0506 22.9526 2.13409 22.9124C2.37942 22.7949 2.62062 22.6795 2.86183 22.6959C3.11437 22.7063 3.31641 22.8568 3.3463 23.2856C3.38753 23.735 3.57926 23.9174 3.89262 23.9174C4.14516 23.9174 4.37709 23.735 4.55851 23.2423C4.59253 23.1495 4.62345 23.0588 4.65334 22.9722C4.78941 22.5681 4.89558 22.2558 5.14503 22.2558C5.46767 22.2661 5.53879 22.631 5.55838 23.1454C5.5893 23.8855 5.32645 24.4534 4.81105 24.9575C4.21526 25.5358 3.77099 26.0821 3.93282 26.8006C4.04415 27.3046 4.56882 27.6355 5.39654 27.6788C6.24592 27.7118 7.61893 27.7221 8.56829 27.7004C9.45683 27.6798 9.97223 27.2716 10.0732 26.7253C10.1372 26.4027 10.0732 26.1872 10.0135 25.9821C9.95986 25.7986 9.90935 25.6234 9.95161 25.3853C10.0031 25.107 10.2444 24.9895 10.5072 24.9895C10.7701 24.9895 11.0226 25.107 11.0628 25.3853C11.0999 25.6182 11.0494 25.7914 10.9958 25.9708C10.934 26.18 10.8711 26.3965 10.9412 26.7253C11.0525 27.2613 11.5576 27.6685 12.4461 27.7004C13.3955 27.7221 14.7685 27.7107 15.6076 27.6685C16.4353 27.6252 16.96 27.2933 17.0713 26.7892C17.2331 26.0718 16.7888 25.5358 16.193 24.9462C15.6777 24.4421 15.4148 23.8741 15.4457 23.1351C15.4663 22.6207 15.5467 22.2568 15.8601 22.2455C16.1106 22.2362 16.2168 22.5527 16.3549 22.966C16.3827 23.0516 16.4126 23.1412 16.4456 23.232C16.627 23.7247 16.8589 23.9071 17.1115 23.9071C17.4248 23.9071 17.6166 23.7133 17.6578 23.2742C17.698 22.8351 17.9 22.6959 18.1423 22.6846C18.3835 22.6691 18.6247 22.7846 18.87 22.9021C18.9535 22.9423 19.037 22.9825 19.1215 23.0176C19.5555 23.199 19.9596 23.232 20.3028 23.0485C20.8594 22.7599 20.8594 22.0847 20.677 21.6136ZM6.64999 10.2749C7.03344 10.2749 7.33649 9.94198 7.33649 9.54615C7.33649 9.13796 7.02313 8.81738 6.64999 8.81738C6.2655 8.81738 5.96245 9.1493 5.96245 9.54615C5.95901 9.63933 5.97414 9.73226 6.00696 9.81953C6.03978 9.90681 6.08963 9.98668 6.15362 10.0545C6.2176 10.1223 6.29444 10.1767 6.37966 10.2146C6.46487 10.2524 6.55677 10.2729 6.64999 10.2749ZM15.0715 9.54615C15.0715 9.94198 14.7695 10.2749 14.385 10.2749C14.2919 10.2728 14.2001 10.2522 14.115 10.2143C14.0299 10.1764 13.9532 10.1219 13.8893 10.0541C13.8255 9.98633 13.7757 9.90651 13.7429 9.8193C13.7102 9.73209 13.6951 9.63924 13.6985 9.54615C13.6985 9.1493 14.0016 8.81738 14.385 8.81738C14.7592 8.81738 15.0715 9.13796 15.0715 9.54615ZM10.5072 10.21C12.1235 10.21 13.2842 10.5955 14.3953 11.6036C15.1633 12.3004 15.6684 13.6827 15.0623 14.7114C14.7695 15.2371 14.2036 15.6546 13.5264 15.7185C12.6286 15.8041 12.073 15.4608 11.7194 15.0434C11.3762 14.6465 11.0123 14.2723 10.4969 14.2723C9.9815 14.2723 9.61866 14.6475 9.27541 15.0434C8.92185 15.4619 8.35594 15.8041 7.4674 15.7185C7.15005 15.6844 6.84537 15.5752 6.57851 15.4001C6.31164 15.225 6.09023 14.989 5.93256 14.7114C5.35737 13.6714 5.85215 12.2891 6.61906 11.6036C7.74056 10.5955 8.89196 10.21 10.5072 10.21ZM8.92185 11.8716C8.92185 11.1428 9.61866 10.5749 10.5175 10.5749C11.4164 10.5749 12.1132 11.1418 12.1132 11.8716C12.1132 12.6004 11.4164 13.1684 10.5175 13.1684C9.61866 13.1684 8.92185 12.6004 8.92185 11.8716ZM7.31588 20.6168C7.31588 18.7408 8.74971 17.2194 10.5175 17.2194C12.275 17.2194 13.7191 18.7408 13.7191 20.6168C13.7191 22.4929 12.2853 24.0143 10.5175 24.0143C8.74971 24.0143 7.31588 22.4919 7.31588 20.6168Z" fill="#FCFDFE"/>
</g>
<defs>
<clipPath id="clip0_406_1540">
<rect width="21" height="28.875" fill="white" transform="translate(0 0.790039)"/>
</clipPath>
</defs>
</svg>
