<svg width="22" height="22" viewBox="0 0 22 22" fill="none" xmlns="http://www.w3.org/2000/svg">
<path d="M11.5 5.83691C14.4531 5.83691 16.8906 8.27441 16.8906 11.2275C16.8906 14.2275 14.4531 16.6182 11.5 16.6182C8.5 16.6182 6.10938 14.2275 6.10938 11.2275C6.10938 8.27441 8.5 5.83691 11.5 5.83691ZM11.5 14.7432C13.4219 14.7432 14.9688 13.1963 14.9688 11.2275C14.9688 9.30566 13.4219 7.75879 11.5 7.75879C9.53125 7.75879 7.98438 9.30566 7.98438 11.2275C7.98438 13.1963 9.57812 14.7432 11.5 14.7432ZM18.3438 5.64941C18.3438 6.35254 17.7812 6.91504 17.0781 6.91504C16.375 6.91504 15.8125 6.35254 15.8125 5.64941C15.8125 4.94629 16.375 4.38379 17.0781 4.38379C17.7812 4.38379 18.3438 4.94629 18.3438 5.64941ZM21.9062 6.91504C22 8.64941 22 13.8525 21.9062 15.5869C21.8125 17.2744 21.4375 18.7275 20.2188 19.9932C19 21.2119 17.5 21.5869 15.8125 21.6807C14.0781 21.7744 8.875 21.7744 7.14062 21.6807C5.45312 21.5869 4 21.2119 2.73438 19.9932C1.51562 18.7275 1.14062 17.2744 1.04688 15.5869C0.953125 13.8525 0.953125 8.64941 1.04688 6.91504C1.14062 5.22754 1.51562 3.72754 2.73438 2.50879C4 1.29004 5.45312 0.915039 7.14062 0.821289C8.875 0.727539 14.0781 0.727539 15.8125 0.821289C17.5 0.915039 19 1.29004 20.2188 2.50879C21.4375 3.72754 21.8125 5.22754 21.9062 6.91504ZM19.6562 17.415C20.2188 16.0557 20.0781 12.7744 20.0781 11.2275C20.0781 9.72754 20.2188 6.44629 19.6562 5.04004C19.2812 4.14941 18.5781 3.39941 17.6875 3.07129C16.2812 2.50879 13 2.64941 11.5 2.64941C9.95312 2.64941 6.67188 2.50879 5.3125 3.07129C4.375 3.44629 3.67188 4.14941 3.29688 5.04004C2.73438 6.44629 2.875 9.72754 2.875 11.2275C2.875 12.7744 2.73438 16.0557 3.29688 17.415C3.67188 18.3525 4.375 19.0557 5.3125 19.4307C6.67188 19.9932 9.95312 19.8525 11.5 19.8525C13 19.8525 16.2812 19.9932 17.6875 19.4307C18.5781 19.0557 19.3281 18.3525 19.6562 17.415Z" fill="#FCFDFE"/>
</svg>
