<svg width="414" height="413" viewBox="0 0 414 413" fill="none" xmlns="http://www.w3.org/2000/svg">
<path d="M174.034 295.803L320.615 149.222L304.396 133.003L174.034 263.364L108.722 198.052L92.5026 214.271L174.034 295.803ZM207.074 412.5C178.555 412.5 151.74 407.088 126.631 396.264C101.526 385.439 79.6865 370.75 61.1125 352.195C42.5385 333.64 27.8356 311.819 17.0036 286.733C6.16788 261.651 0.75 234.848 0.75 206.324C0.75 177.805 6.16215 150.99 16.9865 125.881C27.8108 100.776 42.5003 78.9365 61.0552 60.3625C79.6101 41.7885 101.431 27.0856 126.517 16.2536C151.599 5.41788 178.402 0 206.926 0C235.445 0 262.26 5.41217 287.369 16.2365C312.474 27.0608 334.314 41.7504 352.888 60.3052C371.461 78.8601 386.164 100.681 396.996 125.767C407.832 150.849 413.25 177.652 413.25 206.176C413.25 234.695 407.838 261.51 397.014 286.619C386.189 311.724 371.5 333.564 352.945 352.138C334.39 370.711 312.569 385.414 287.483 396.246C262.401 407.082 235.598 412.5 207.074 412.5ZM207 389.583C258.181 389.583 301.531 371.823 337.052 336.302C372.573 300.781 390.333 257.431 390.333 206.25C390.333 155.069 372.573 111.719 337.052 76.1979C301.531 40.6771 258.181 22.9167 207 22.9167C155.819 22.9167 112.469 40.6771 76.9479 76.1979C41.4271 111.719 23.6667 155.069 23.6667 206.25C23.6667 257.431 41.4271 300.781 76.9479 336.302C112.469 371.823 155.819 389.583 207 389.583Z" fill="#38AB53"/>
</svg>
