<svg width="570" height="120" viewBox="0 0 570 120" fill="none" xmlns="http://www.w3.org/2000/svg">
<path d="M546.565 60.0033L570 110H70L93.4351 60.0033L70 10H570L546.565 60.0033Z" fill="#F1BC6A"/>
<path d="M548.438 31.667L550.312 28.335V28.334L549.877 28.0889L551.752 24.7549L552.188 25V25.001L554.062 21.667H554.062L553.627 21.4219L554.146 20.5H553V20H549V20.5H545V20H541V20.5H537V20H533V20.5H529V20H525V20.5H521V20H517V20.5H513V20H509V20.5H505V20H501V20.5H497V20H493V20.5H489V20H485V20.5H481V20H477V20.5H473V20H469V20.5H465V20H461V20.5H457V20H453V20.5H449V20H445V20.5H441V20H437V20.5H433V20H429V20.5H425V20H421V20.5H417V20H413V20.5H409V20H405V20.5H401V20H397V20.5H393V20H389V20.5H385V20H381V20.5H377V20H373V20.5H369V20H365V20.5H361V20H357V20.5H353V20H349V20.5H345V20H341V20.5H337V20H333V20.5H329V20H325V20.5H321V20H317V20.5H313V20H309V20.5H305V20H301V20.5H297V20H293V20.5H289V20H285V20.5H281V20H277V20.5H273V20H269V20.5H265V20H261V20.5H257V20H253V20.5H249V20H245V20.5H241V20H237V20.5H233V20H229V20.5H225V20H221V20.5H217V20H213V20.5H209V20H205V20.5H201V20H197V20.5H193V20H189V20.5H185V20H181V20.5H177V20H173V20.5H169V20H165V20.5H161V20H157V20.5H153V20H149V20.5H145V20H141V20.5H137V20H133V20.5H129V20H125V20.5H121V20H117V20.5H113V20H109V20.5H105V20H101V20.5H97V20H93V20.5H89V20H85V20.5H81V20H77V20.5H75.8545L76.373 21.4219L75.9375 21.667L77.8115 25.001L77.8125 25L78.248 24.7549L80.123 28.0889L79.6875 28.334L79.6865 28.335L81.5615 31.667L81.998 31.4219L83.8721 34.7559L83.4365 35.001L85.3115 38.335L85.7471 38.0898L87.6221 41.4229L87.1865 41.668L87.1855 41.6689L89.0605 45.0029L89.0615 45.002L89.4971 44.7568L91.3721 48.0898L90.9355 48.335L92.8105 51.6689L93.2461 51.4238L95.1211 54.7568L94.6855 55.002L94.6846 55.0029L96.5596 58.3369L96.5605 58.3359L96.9961 58.0908L97.9336 59.7578L98.0713 60.0029L97.9336 60.248L96.9961 61.9141L96.5605 61.6699L94.6855 65.0029L95.1211 65.2471L93.2461 68.5801L92.8105 68.3359L90.9355 71.6699L91.3721 71.9141L89.4971 75.2471L89.0605 75.002L87.1855 78.335L87.6221 78.5801L85.7471 81.9131L85.3115 81.6689L83.4365 85.002L83.8721 85.2461L81.998 88.5791L81.5615 88.335L79.6865 91.667L80.123 91.9121L78.248 95.2451L77.8115 95L75.9375 98.334L76.373 98.5781L75.8545 99.5H77V100H81V99.5H85V100H89V99.5H93V100H97V99.5H101V100H105V99.5H109V100H113V99.5H117V100H121V99.5H125V100H129V99.5H133V100H137V99.5H141V100H145V99.5H149V100H153V99.5H157V100H161V99.5H165V100H169V99.5H173V100H177V99.5H181V100H185V99.5H189V100H193V99.5H197V100H201V99.5H205V100H209V99.5H213V100H217V99.5H221V100H225V99.5H229V100H233V99.5H237V100H241V99.5H245V100H249V99.5H253V100H257V99.5H261V100H265V99.5H269V100H273V99.5H277V100H281V99.5H285V100H289V99.5H293V100H297V99.5H301V100H305V99.5H309V100H313V99.5H317V100H321V99.5H325V100H329V99.5H333V100H337V99.5H341V100H345V99.5H349V100H353V99.5H357V100H361V99.5H365V100H369V99.5H373V100H377V99.5H381V100H385V99.5H389V100H393V99.5H397V100H401V99.5H405V100H409V99.5H413V100H417V99.5H421V100H425V99.5H429V100H433V99.5H437V100H441V99.5H445V100H449V99.5H453V100H457V99.5H461V100H465V99.5H469V100H473V99.5H477V100H481V99.5H485V100H489V99.5H493V100H497V99.5H501V100H505V99.5H509V100H513V99.5H517V100H521V99.5H525V100H529V99.5H533V100H537V99.5H541V100H545V99.5H549V100H553V99.5H554.146L553.627 98.5781L554.062 98.334L552.188 95L551.752 95.2451L549.877 91.9121L550.312 91.667L548.438 88.335L548.002 88.5791L546.128 85.2461L546.562 85.002L544.688 81.6689L544.253 81.9131L542.378 78.5801L542.813 78.335L540.938 75.002L540.503 75.2471L538.628 71.9141L539.063 71.6699L537.188 68.3359L536.754 68.5801L534.879 65.2471L535.313 65.0029L533.438 61.6699L533.004 61.9141L532.066 60.248L531.929 60.0029L532.066 59.7578L533.004 58.0908L533.439 58.3359V58.3369L535.314 55.0029V55.002L534.879 54.7568L536.754 51.4238L537.188 51.6689L539.063 48.335H539.064L538.628 48.0898L540.503 44.7568L540.938 45.002V45.0029L542.813 41.6689V41.668L542.378 41.4229L544.253 38.0898L544.688 38.335L546.562 35.001H546.563L546.128 34.7559L548.002 31.4219L548.438 31.667Z" fill="#F1BC6A" stroke="#FCFDFE" stroke-dasharray="4 4"/>
<path d="M135.33 70.272C135.053 70.4453 134.749 70.4973 134.42 70.428C134.108 70.3413 133.857 70.1593 133.666 69.882C133.493 69.5873 133.441 69.284 133.51 68.972C133.597 68.6427 133.779 68.3913 134.056 68.218C135.772 67.1953 137.375 66.034 138.866 64.734C140.374 63.434 141.735 62.0473 142.948 60.574C142.203 60.0713 141.483 59.6033 140.79 59.17C140.097 58.7367 139.49 58.39 138.97 58.13C138.675 57.9913 138.467 57.766 138.346 57.454C138.225 57.142 138.233 56.8387 138.372 56.544C138.511 56.232 138.745 56.0327 139.074 55.946C139.403 55.8593 139.715 55.8853 140.01 56.024C140.669 56.336 141.371 56.7173 142.116 57.168C142.879 57.6187 143.65 58.1127 144.43 58.65C145.019 57.818 145.565 56.9687 146.068 56.102C146.588 55.2353 147.047 54.3513 147.446 53.45C147.585 53.1553 147.81 52.9473 148.122 52.826C148.451 52.7047 148.763 52.7133 149.058 52.852C149.353 52.9907 149.561 53.2247 149.682 53.554C149.803 53.866 149.795 54.1693 149.656 54.464C149.223 55.3827 148.72 56.31 148.148 57.246C147.593 58.182 146.978 59.1093 146.302 60.028C147.099 60.6173 147.845 61.2153 148.538 61.822C149.249 62.4287 149.847 62.9833 150.332 63.486C150.575 63.7113 150.687 63.9973 150.67 64.344C150.67 64.6907 150.549 64.9853 150.306 65.228C150.046 65.4533 149.743 65.566 149.396 65.566C149.067 65.566 148.781 65.436 148.538 65.176C148.105 64.708 147.559 64.1967 146.9 63.642C146.241 63.07 145.539 62.5067 144.794 61.952C143.459 63.5467 141.986 65.0633 140.374 66.502C138.762 67.9233 137.081 69.18 135.33 70.272ZM162.682 69.726C162.37 69.8473 162.067 69.8387 161.772 69.7C161.477 69.5613 161.269 69.336 161.148 69.024C161.027 68.712 161.035 68.4087 161.174 68.114C161.33 67.802 161.564 67.5853 161.876 67.464C163.297 66.944 164.719 66.3287 166.14 65.618C167.561 64.89 168.922 64.11 170.222 63.278C171.539 62.4287 172.727 61.5533 173.784 60.652C174.859 59.7507 175.751 58.8667 176.462 58C176.67 57.74 176.939 57.6013 177.268 57.584C177.597 57.5493 177.892 57.636 178.152 57.844C178.412 58.052 178.559 58.3207 178.594 58.65C178.629 58.9793 178.542 59.274 178.334 59.534C177.641 60.3833 176.705 61.2933 175.526 62.264C174.347 63.2347 173.039 64.1967 171.6 65.15C170.161 66.086 168.671 66.9527 167.128 67.75C165.603 68.5473 164.121 69.206 162.682 69.726ZM165.334 59.638C164.918 59.274 164.441 58.8927 163.904 58.494C163.384 58.0953 162.855 57.714 162.318 57.35C161.798 56.986 161.321 56.674 160.888 56.414C160.611 56.2407 160.429 55.998 160.342 55.686C160.255 55.3567 160.299 55.0533 160.472 54.776C160.645 54.4813 160.897 54.2907 161.226 54.204C161.555 54.1173 161.859 54.1693 162.136 54.36C162.569 54.6373 163.081 54.9927 163.67 55.426C164.277 55.842 164.866 56.2667 165.438 56.7C166.01 57.116 166.469 57.4627 166.816 57.74C167.076 57.948 167.223 58.2167 167.258 58.546C167.31 58.8753 167.232 59.17 167.024 59.43C166.833 59.69 166.565 59.846 166.218 59.898C165.889 59.95 165.594 59.8633 165.334 59.638ZM188.11 71.754C187.798 71.8753 187.486 71.8753 187.174 71.754C186.879 71.65 186.663 71.442 186.524 71.13C186.385 70.8353 186.377 70.532 186.498 70.22C186.619 69.908 186.836 69.6827 187.148 69.544C189.055 68.7293 190.762 67.802 192.27 66.762C193.795 65.7047 195.147 64.5433 196.326 63.278C195.841 62.8273 195.381 62.4027 194.948 62.004C194.532 61.6053 194.151 61.276 193.804 61.016C193.544 60.7907 193.397 60.5133 193.362 60.184C193.327 59.8547 193.414 59.5687 193.622 59.326C193.83 59.066 194.099 58.9187 194.428 58.884C194.757 58.832 195.052 58.91 195.312 59.118C195.693 59.4473 196.101 59.8027 196.534 60.184C196.985 60.5653 197.435 60.9553 197.886 61.354C198.285 60.7993 198.657 60.236 199.004 59.664C199.351 59.092 199.671 58.494 199.966 57.87C200.278 57.2113 200.347 56.7173 200.174 56.388C200.018 56.0587 199.585 55.894 198.874 55.894H194.688C194.116 56.6567 193.483 57.4193 192.79 58.182C192.097 58.9447 191.395 59.6553 190.684 60.314C189.973 60.9727 189.297 61.5273 188.656 61.978C188.379 62.1513 188.075 62.212 187.746 62.16C187.434 62.108 187.183 61.9433 186.992 61.666C186.801 61.3887 186.732 61.0853 186.784 60.756C186.836 60.4267 187.001 60.1753 187.278 60.002C188.353 59.2393 189.358 58.3987 190.294 57.48C191.247 56.544 192.088 55.5647 192.816 54.542C193.561 53.5193 194.159 52.5053 194.61 51.5C194.749 51.2053 194.974 50.9973 195.286 50.876C195.598 50.7547 195.901 50.7633 196.196 50.902C196.491 51.0233 196.699 51.24 196.82 51.552C196.941 51.864 196.933 52.176 196.794 52.488C196.725 52.6613 196.638 52.8347 196.534 53.008C196.447 53.1813 196.352 53.3633 196.248 53.554H198.874C200.763 53.554 201.968 54.048 202.488 55.036C203.025 56.024 202.904 57.324 202.124 58.936C201.795 59.6293 201.413 60.314 200.98 60.99C200.564 61.666 200.105 62.3247 199.602 62.966C200.001 63.3647 200.373 63.7547 200.72 64.136C201.084 64.5 201.405 64.8553 201.682 65.202C201.907 65.4793 202.003 65.7913 201.968 66.138C201.933 66.4847 201.777 66.7707 201.5 66.996C201.223 67.204 200.911 67.2907 200.564 67.256C200.235 67.204 199.957 67.048 199.732 66.788C199.489 66.5107 199.212 66.2073 198.9 65.878C198.605 65.5487 198.293 65.2193 197.964 64.89C196.629 66.3113 195.121 67.6113 193.44 68.79C191.776 69.9513 189.999 70.9393 188.11 71.754ZM227.266 67.36C225.931 67.8453 224.735 68.0533 223.678 67.984C222.638 67.9147 221.823 67.5247 221.234 66.814C220.645 66.1033 220.35 65.0287 220.35 63.59V55.608C220.35 55.2613 220.463 54.9753 220.688 54.75C220.931 54.5073 221.217 54.386 221.546 54.386C221.893 54.386 222.179 54.5073 222.404 54.75C222.647 54.9753 222.768 55.2613 222.768 55.608V63.59C222.768 64.5087 223.063 65.1067 223.652 65.384C224.241 65.6613 225.16 65.566 226.408 65.098C227.361 64.7513 228.306 64.37 229.242 63.954C230.178 63.538 230.993 63.148 231.686 62.784C231.981 62.628 232.284 62.602 232.596 62.706C232.925 62.81 233.168 63.0093 233.324 63.304C233.463 63.5813 233.48 63.8847 233.376 64.214C233.289 64.526 233.099 64.76 232.804 64.916C231.989 65.3493 231.088 65.7827 230.1 66.216C229.129 66.632 228.185 67.0133 227.266 67.36ZM210.418 68.92C210.123 69.0587 209.82 69.0673 209.508 68.946C209.196 68.8247 208.971 68.6167 208.832 68.322C208.711 68.01 208.711 67.698 208.832 67.386C208.953 67.074 209.161 66.8573 209.456 66.736C210.981 66.06 212.169 65.2193 213.018 64.214C213.867 63.1913 214.465 62.0647 214.812 60.834C215.159 59.6033 215.332 58.3293 215.332 57.012C215.332 56.6827 215.453 56.4053 215.696 56.18C215.939 55.9373 216.225 55.816 216.554 55.816C216.883 55.816 217.161 55.9373 217.386 56.18C217.629 56.4053 217.75 56.6827 217.75 57.012C217.75 58.832 217.455 60.522 216.866 62.082C216.277 63.642 215.436 65.0027 214.344 66.164C213.252 67.3253 211.943 68.244 210.418 68.92ZM256.282 67.828C255.745 67.308 255.069 66.7013 254.254 66.008C253.439 65.2973 252.581 64.5693 251.68 63.824C250.779 63.0613 249.903 62.342 249.054 61.666C248.205 60.9727 247.468 60.392 246.844 59.924C246.307 59.508 245.83 59.2307 245.414 59.092C244.998 58.9533 244.565 58.9447 244.114 59.066C243.663 59.1873 243.117 59.43 242.476 59.794C242.008 60.0713 241.445 60.4093 240.786 60.808C240.145 61.2067 239.521 61.5967 238.914 61.978C238.325 62.342 237.857 62.628 237.51 62.836C237.233 63.0093 236.929 63.0527 236.6 62.966C236.271 62.8793 236.019 62.6973 235.846 62.42C235.673 62.1253 235.621 61.8307 235.69 61.536C235.777 61.224 235.959 60.9813 236.236 60.808C236.496 60.652 236.843 60.444 237.276 60.184C237.727 59.9067 238.203 59.6207 238.706 59.326C239.209 59.014 239.694 58.728 240.162 58.468C240.63 58.1907 241.02 57.9653 241.332 57.792C242.303 57.2547 243.135 56.908 243.828 56.752C244.539 56.5787 245.232 56.596 245.908 56.804C246.584 57.012 247.347 57.428 248.196 58.052C248.647 58.3813 249.201 58.7973 249.86 59.3C250.519 59.8027 251.221 60.3573 251.966 60.964C252.711 61.5533 253.457 62.16 254.202 62.784C254.965 63.408 255.675 64.006 256.334 64.578C256.993 65.1327 257.547 65.6267 257.998 66.06C258.241 66.2853 258.362 66.5713 258.362 66.918C258.379 67.2647 258.267 67.5593 258.024 67.802C257.799 68.0447 257.513 68.1747 257.166 68.192C256.819 68.192 256.525 68.0707 256.282 67.828ZM279.266 67.36C277.931 67.8453 276.735 68.0533 275.678 67.984C274.638 67.9147 273.823 67.5247 273.234 66.814C272.645 66.1033 272.35 65.0287 272.35 63.59V55.608C272.35 55.2613 272.463 54.9753 272.688 54.75C272.931 54.5073 273.217 54.386 273.546 54.386C273.893 54.386 274.179 54.5073 274.404 54.75C274.647 54.9753 274.768 55.2613 274.768 55.608V63.59C274.768 64.5087 275.063 65.1067 275.652 65.384C276.241 65.6613 277.16 65.566 278.408 65.098C279.361 64.7513 280.306 64.37 281.242 63.954C282.178 63.538 282.993 63.148 283.686 62.784C283.981 62.628 284.284 62.602 284.596 62.706C284.925 62.81 285.168 63.0093 285.324 63.304C285.463 63.5813 285.48 63.8847 285.376 64.214C285.289 64.526 285.099 64.76 284.804 64.916C283.989 65.3493 283.088 65.7827 282.1 66.216C281.129 66.632 280.185 67.0133 279.266 67.36ZM262.418 68.92C262.123 69.0587 261.82 69.0673 261.508 68.946C261.196 68.8247 260.971 68.6167 260.832 68.322C260.711 68.01 260.711 67.698 260.832 67.386C260.953 67.074 261.161 66.8573 261.456 66.736C262.981 66.06 264.169 65.2193 265.018 64.214C265.867 63.1913 266.465 62.0647 266.812 60.834C267.159 59.6033 267.332 58.3293 267.332 57.012C267.332 56.6827 267.453 56.4053 267.696 56.18C267.939 55.9373 268.225 55.816 268.554 55.816C268.883 55.816 269.161 55.9373 269.386 56.18C269.629 56.4053 269.75 56.6827 269.75 57.012C269.75 58.832 269.455 60.522 268.866 62.082C268.277 63.642 267.436 65.0027 266.344 66.164C265.252 67.3253 263.943 68.244 262.418 68.92ZM290.654 70.168C290.359 70.3067 290.047 70.324 289.718 70.22C289.406 70.0987 289.181 69.8907 289.042 69.596C288.903 69.3013 288.886 68.998 288.99 68.686C289.094 68.3567 289.293 68.1227 289.588 67.984C292.119 66.7707 294.389 65.2713 296.4 63.486C298.428 61.6833 300.049 59.716 301.262 57.584C302.025 56.232 301.513 55.556 299.728 55.556H292.396C292.067 55.556 291.781 55.4347 291.538 55.192C291.313 54.9493 291.2 54.6633 291.2 54.334C291.2 54.0047 291.313 53.7273 291.538 53.502C291.781 53.2593 292.067 53.138 292.396 53.138H299.728C301.115 53.138 302.172 53.3807 302.9 53.866C303.645 54.3513 304.053 55.0187 304.122 55.868C304.209 56.7173 303.94 57.688 303.316 58.78C303.073 59.196 302.805 59.6207 302.51 60.054C302.233 60.47 301.929 60.8947 301.6 61.328C302.432 61.9867 303.29 62.732 304.174 63.564C305.058 64.3787 305.89 65.176 306.67 65.956C307.45 66.736 308.083 67.3947 308.568 67.932C308.811 68.1573 308.932 68.4347 308.932 68.764C308.932 69.0933 308.811 69.3793 308.568 69.622C308.325 69.8473 308.039 69.96 307.71 69.96C307.381 69.96 307.095 69.8387 306.852 69.596C306.505 69.2493 306.072 68.8073 305.552 68.27C305.032 67.7153 304.46 67.1347 303.836 66.528C303.212 65.904 302.579 65.2887 301.938 64.682C301.314 64.0753 300.716 63.5293 300.144 63.044C298.844 64.4653 297.379 65.7913 295.75 67.022C294.121 68.2527 292.422 69.3013 290.654 70.168ZM322.53 72.924C321.265 72.924 320.277 72.794 319.566 72.534C318.873 72.274 318.379 71.8407 318.084 71.234C317.807 70.6447 317.668 69.83 317.668 68.79C317.668 67.75 317.807 66.9267 318.084 66.32C318.379 65.7133 318.873 65.28 319.566 65.02C320.277 64.76 321.265 64.63 322.53 64.63H324.428C324.064 64.5433 323.83 64.318 323.726 63.954C323.605 63.642 323.613 63.356 323.752 63.096C323.908 62.836 324.177 62.6453 324.558 62.524C325.511 62.1947 326.369 61.8047 327.132 61.354C327.912 60.9033 328.597 60.4093 329.186 59.872C328.77 59.3693 328.38 58.8493 328.016 58.312C327.669 57.7573 327.349 57.194 327.054 56.622C326.898 56.8473 326.742 57.0727 326.586 57.298C326.43 57.5233 326.283 57.74 326.144 57.948C325.971 58.1907 325.737 58.3553 325.442 58.442C325.147 58.5287 324.861 58.4853 324.584 58.312C324.463 58.2427 324.367 58.1473 324.298 58.026C324.229 59.066 323.925 59.7767 323.388 60.158C322.868 60.5393 321.932 60.73 320.58 60.73H316.862C316.602 62.8273 315.883 64.63 314.704 66.138C314.496 66.3807 314.219 66.5367 313.872 66.606C313.543 66.6753 313.231 66.606 312.936 66.398C312.676 66.2073 312.529 65.956 312.494 65.644C312.477 65.3147 312.555 65.0373 312.728 64.812C313.456 63.8933 313.967 62.9487 314.262 61.978C314.557 61.0073 314.704 59.9327 314.704 58.754V57.74C314.704 56.8907 314.817 56.2233 315.042 55.738C315.267 55.2353 315.666 54.88 316.238 54.672C316.81 54.4467 317.616 54.334 318.656 54.334H320.58C321.915 54.334 322.842 54.516 323.362 54.88C323.899 55.244 324.203 55.92 324.272 56.908H324.298C324.766 56.3013 325.234 55.5733 325.702 54.724C326.187 53.8573 326.621 52.982 327.002 52.098C327.401 51.214 327.704 50.4513 327.912 49.81C327.999 49.5153 328.189 49.3073 328.484 49.186C328.779 49.0473 329.073 49.0387 329.368 49.16C329.663 49.264 329.862 49.446 329.966 49.706C330.087 49.9487 330.105 50.2173 330.018 50.512C329.897 50.876 329.749 51.2573 329.576 51.656C329.42 52.0547 329.247 52.462 329.056 52.878H336.024C336.319 52.878 336.561 52.982 336.752 53.19C336.943 53.3807 337.038 53.6147 337.038 53.892C337.038 54.1693 336.943 54.412 336.752 54.62C336.561 54.828 336.319 54.932 336.024 54.932H334.568C334.083 56.7347 333.285 58.364 332.176 59.82C333.476 60.9293 334.958 61.8567 336.622 62.602C336.899 62.7233 337.081 62.9487 337.168 63.278C337.272 63.59 337.255 63.8847 337.116 64.162C336.943 64.4567 336.683 64.6473 336.336 64.734C336.007 64.8207 335.686 64.7947 335.374 64.656C333.658 63.8587 332.098 62.7927 330.694 61.458C329.966 62.134 329.151 62.7407 328.25 63.278C327.366 63.8153 326.387 64.2573 325.312 64.604C325.295 64.604 325.277 64.6127 325.26 64.63C325.243 64.63 325.217 64.63 325.182 64.63H327.626C328.891 64.63 329.879 64.76 330.59 65.02C331.301 65.28 331.795 65.7133 332.072 66.32C332.367 66.9267 332.514 67.75 332.514 68.79C332.514 69.83 332.367 70.6447 332.072 71.234C331.795 71.8407 331.301 72.274 330.59 72.534C329.879 72.794 328.891 72.924 327.626 72.924H322.53ZM322.53 70.844H327.626C328.337 70.844 328.874 70.792 329.238 70.688C329.602 70.5667 329.845 70.3587 329.966 70.064C330.105 69.7693 330.174 69.3447 330.174 68.79C330.174 68.2353 330.105 67.8107 329.966 67.516C329.845 67.2213 329.602 67.022 329.238 66.918C328.874 66.7967 328.337 66.736 327.626 66.736H322.53C321.837 66.736 321.299 66.7967 320.918 66.918C320.554 67.022 320.303 67.2213 320.164 67.516C320.043 67.8107 319.982 68.2353 319.982 68.79C319.982 69.3447 320.043 69.7693 320.164 70.064C320.303 70.3587 320.554 70.5667 320.918 70.688C321.299 70.792 321.837 70.844 322.53 70.844ZM314.288 52.566C314.011 52.566 313.768 52.462 313.56 52.254C313.352 52.046 313.248 51.7947 313.248 51.5C313.248 51.2053 313.352 50.9627 313.56 50.772C313.768 50.564 314.011 50.46 314.288 50.46H324.48C324.775 50.46 325.026 50.564 325.234 50.772C325.442 50.9627 325.546 51.2053 325.546 51.5C325.546 51.7947 325.442 52.046 325.234 52.254C325.026 52.462 324.775 52.566 324.48 52.566H314.288ZM316.992 58.78H320.476C321.083 58.78 321.49 58.702 321.698 58.546C321.923 58.3727 322.036 58.0347 322.036 57.532C322.036 57.0293 321.923 56.7 321.698 56.544C321.49 56.3707 321.083 56.284 320.476 56.284H318.656C317.963 56.284 317.512 56.3793 317.304 56.57C317.096 56.7433 316.992 57.1333 316.992 57.74V58.78ZM330.616 58.26C330.997 57.74 331.327 57.2027 331.604 56.648C331.881 56.0933 332.115 55.5213 332.306 54.932H328.458C328.753 55.5387 329.073 56.1193 329.42 56.674C329.784 57.2287 330.183 57.7573 330.616 58.26ZM341.25 72.846C340.418 73.0193 339.907 72.768 339.716 72.092C339.612 71.78 339.655 71.4853 339.846 71.208C340.037 70.948 340.305 70.792 340.652 70.74C342.611 70.3933 344.093 69.8127 345.098 68.998C346.103 68.1833 346.736 67.022 346.996 65.514H341.562C341.267 65.514 341.007 65.41 340.782 65.202C340.574 64.994 340.47 64.7427 340.47 64.448C340.47 64.1533 340.574 63.902 340.782 63.694C341.007 63.4687 341.267 63.356 341.562 63.356H347.178V60.366H345.488C345.193 60.366 344.942 60.262 344.734 60.054C344.526 59.846 344.413 59.5947 344.396 59.3C343.113 60.34 341.796 61.198 340.444 61.874C340.132 62.03 339.82 62.0647 339.508 61.978C339.196 61.874 338.962 61.666 338.806 61.354C338.685 61.0767 338.685 60.7993 338.806 60.522C338.927 60.2273 339.144 60.0107 339.456 59.872C340.201 59.5253 340.938 59.118 341.666 58.65C342.411 58.1647 343.105 57.6533 343.746 57.116C343.365 56.7867 342.914 56.414 342.394 55.998C341.891 55.5647 341.467 55.2267 341.12 54.984C340.895 54.8107 340.773 54.5767 340.756 54.282C340.739 53.9873 340.825 53.736 341.016 53.528C341.224 53.32 341.467 53.1987 341.744 53.164C342.039 53.1293 342.307 53.2073 342.55 53.398C342.775 53.5713 343.053 53.7967 343.382 54.074C343.729 54.3513 344.075 54.6287 344.422 54.906C344.786 55.1833 345.089 55.4347 345.332 55.66C346.043 54.9147 346.632 54.1953 347.1 53.502C347.603 52.7393 347.36 52.358 346.372 52.358H342.342C342.082 52.358 341.857 52.2627 341.666 52.072C341.475 51.864 341.38 51.6213 341.38 51.344C341.38 51.0667 341.475 50.8327 341.666 50.642C341.857 50.434 342.082 50.33 342.342 50.33H346.944C347.828 50.33 348.513 50.5033 348.998 50.85C349.501 51.1793 349.778 51.63 349.83 52.202C349.882 52.7567 349.683 53.372 349.232 54.048C348.313 55.452 347.143 56.8127 345.722 58.13H356.434C354.181 56.154 352.439 53.7967 351.208 51.058C351.104 50.798 351.104 50.5467 351.208 50.304C351.312 50.044 351.485 49.8533 351.728 49.732C351.988 49.5933 352.274 49.5673 352.586 49.654C352.898 49.7407 353.115 49.914 353.236 50.174C353.461 50.6073 353.687 51.0407 353.912 51.474C354.155 51.9073 354.406 52.332 354.666 52.748C354.978 52.5053 355.307 52.2453 355.654 51.968C356.001 51.6733 356.33 51.3873 356.642 51.11C356.954 50.8327 357.197 50.6073 357.37 50.434C357.595 50.2433 357.847 50.148 358.124 50.148C358.419 50.1307 358.67 50.226 358.878 50.434C359.103 50.642 359.216 50.8933 359.216 51.188C359.216 51.4827 359.112 51.7253 358.904 51.916C358.679 52.124 358.384 52.3753 358.02 52.67C357.656 52.9647 357.283 53.268 356.902 53.58C356.521 53.8747 356.183 54.1433 355.888 54.386C356.096 54.646 356.313 54.8973 356.538 55.14C356.781 55.3827 357.023 55.6253 357.266 55.868C357.561 55.6427 357.899 55.374 358.28 55.062C358.661 54.75 359.025 54.438 359.372 54.126C359.736 53.814 360.022 53.5627 360.23 53.372C360.438 53.164 360.689 53.06 360.984 53.06C361.279 53.0427 361.53 53.138 361.738 53.346C361.946 53.554 362.05 53.8053 362.05 54.1C362.067 54.3947 361.963 54.6373 361.738 54.828C361.409 55.1227 360.958 55.504 360.386 55.972C359.831 56.44 359.329 56.856 358.878 57.22C359.415 57.6187 359.996 58.0087 360.62 58.39C361.244 58.754 361.911 59.1007 362.622 59.43C362.917 59.5687 363.099 59.794 363.168 60.106C363.255 60.418 363.22 60.7213 363.064 61.016C362.891 61.3107 362.631 61.4927 362.284 61.562C361.955 61.6313 361.634 61.5793 361.322 61.406C359.987 60.7127 358.748 59.9413 357.604 59.092C357.604 59.1093 357.604 59.1353 357.604 59.17C357.621 59.1873 357.63 59.2133 357.63 59.248C357.63 59.56 357.517 59.8287 357.292 60.054C357.067 60.262 356.807 60.366 356.512 60.366H354.562V63.356H360.178C360.49 63.356 360.75 63.4687 360.958 63.694C361.166 63.902 361.27 64.1533 361.27 64.448C361.27 64.7427 361.166 64.994 360.958 65.202C360.75 65.41 360.49 65.514 360.178 65.514H354.562V68.738C354.562 69.4487 354.735 69.9253 355.082 70.168C355.429 70.4107 356.139 70.532 357.214 70.532C358.133 70.532 358.774 70.3847 359.138 70.09C359.502 69.7953 359.771 69.2667 359.944 68.504C360.031 68.1573 360.221 67.906 360.516 67.75C360.811 67.594 361.123 67.568 361.452 67.672C361.816 67.776 362.067 67.958 362.206 68.218C362.362 68.478 362.405 68.7727 362.336 69.102C362.059 70.454 361.487 71.3987 360.62 71.936C359.771 72.4907 358.627 72.768 357.188 72.768C355.975 72.768 355.004 72.6553 354.276 72.43C353.565 72.222 353.045 71.832 352.716 71.26C352.404 70.7053 352.248 69.9167 352.248 68.894V65.514H349.284C349.007 67.542 348.235 69.1453 346.97 70.324C345.705 71.5027 343.798 72.3433 341.25 72.846ZM349.414 63.356H352.248V60.366H349.414V63.356ZM386.126 70.324C384.098 70.4973 382.391 70.5753 381.004 70.558C379.617 70.5407 378.465 70.402 377.546 70.142C376.645 69.8647 375.891 69.4573 375.284 68.92C374.747 68.4347 374.348 67.8887 374.088 67.282C373.828 66.658 373.655 66.0253 373.568 65.384C373.499 64.7253 373.464 64.11 373.464 63.538V59.794C372.233 59.9673 371.011 60.1407 369.798 60.314C368.585 60.4873 367.51 60.6433 366.574 60.782C366.245 60.834 365.941 60.7647 365.664 60.574C365.404 60.366 365.248 60.0973 365.196 59.768C365.144 59.4387 365.222 59.144 365.43 58.884C365.638 58.6067 365.907 58.4507 366.236 58.416C367.103 58.312 368.186 58.1733 369.486 58C370.786 57.8267 372.112 57.6533 373.464 57.48V52.826C373.464 52.4967 373.585 52.2193 373.828 51.994C374.071 51.7513 374.357 51.6387 374.686 51.656C375.033 51.656 375.319 51.7773 375.544 52.02C375.769 52.2453 375.882 52.5227 375.882 52.852V57.142C377.009 56.986 377.997 56.8473 378.846 56.726C379.713 56.6047 380.302 56.518 380.614 56.466C382.313 56.2233 383.561 56.2753 384.358 56.622C385.173 56.9687 385.693 57.688 385.918 58.78C386.143 59.872 385.857 60.8947 385.06 61.848C384.263 62.8013 382.859 63.6073 380.848 64.266C380.536 64.37 380.224 64.3613 379.912 64.24C379.617 64.1013 379.418 63.876 379.314 63.564C379.193 63.252 379.201 62.9487 379.34 62.654C379.479 62.342 379.704 62.1253 380.016 62.004C382.443 61.172 383.604 60.3053 383.5 59.404C383.448 59.0053 383.266 58.7713 382.954 58.702C382.659 58.6153 382.018 58.6327 381.03 58.754C380.631 58.806 379.964 58.8927 379.028 59.014C378.109 59.1353 377.061 59.2827 375.882 59.456V63.538C375.882 65.2887 376.22 66.4673 376.896 67.074C377.503 67.6113 378.525 67.958 379.964 68.114C381.403 68.2527 383.379 68.1833 385.892 67.906C386.239 67.8713 386.533 67.9667 386.776 68.192C387.036 68.4 387.183 68.6687 387.218 68.998C387.253 69.3273 387.166 69.622 386.958 69.882C386.75 70.142 386.473 70.2893 386.126 70.324ZM407.576 71.52C406.761 70.8613 405.799 70.1853 404.69 69.492C403.598 68.7813 402.471 68.114 401.31 67.49C400.149 66.866 399.065 66.3373 398.06 65.904C397.765 65.7653 397.557 65.54 397.436 65.228C397.332 64.916 397.341 64.604 397.462 64.292C397.601 63.9973 397.826 63.7893 398.138 63.668C398.45 63.5467 398.762 63.5553 399.074 63.694C400.149 64.1793 401.293 64.76 402.506 65.436C403.737 66.112 404.924 66.814 406.068 67.542C407.229 68.27 408.235 68.9633 409.084 69.622C409.344 69.83 409.491 70.1073 409.526 70.454C409.561 70.7833 409.474 71.078 409.266 71.338C409.058 71.5807 408.789 71.7193 408.46 71.754C408.131 71.806 407.836 71.728 407.576 71.52ZM405.288 62.758C404.907 62.498 404.395 62.2033 403.754 61.874C403.13 61.5273 402.463 61.1893 401.752 60.86C401.041 60.5133 400.357 60.2013 399.698 59.924C399.039 59.6293 398.485 59.4127 398.034 59.274C397.722 59.17 397.488 58.9707 397.332 58.676C397.193 58.3813 397.176 58.0693 397.28 57.74C397.367 57.428 397.557 57.194 397.852 57.038C398.164 56.882 398.476 56.856 398.788 56.96C399.325 57.1507 399.949 57.4107 400.66 57.74C401.388 58.052 402.125 58.39 402.87 58.754C403.633 59.118 404.343 59.4733 405.002 59.82C405.661 60.1667 406.198 60.47 406.614 60.73C406.891 60.9033 407.065 61.1547 407.134 61.484C407.203 61.8133 407.143 62.1167 406.952 62.394C406.779 62.6713 406.527 62.8447 406.198 62.914C405.886 62.9833 405.583 62.9313 405.288 62.758ZM406.926 57.116C406.527 56.8213 406.016 56.5007 405.392 56.154C404.785 55.8073 404.135 55.4607 403.442 55.114C402.766 54.75 402.107 54.4207 401.466 54.126C400.825 53.8313 400.27 53.5973 399.802 53.424C399.49 53.3027 399.265 53.0947 399.126 52.8C398.987 52.5053 398.979 52.202 399.1 51.89C399.221 51.578 399.429 51.3527 399.724 51.214C400.019 51.058 400.322 51.0493 400.634 51.188C401.137 51.3787 401.743 51.6473 402.454 51.994C403.165 52.3233 403.893 52.6873 404.638 53.086C405.401 53.4673 406.103 53.8487 406.744 54.23C407.403 54.594 407.923 54.906 408.304 55.166C408.581 55.3567 408.746 55.6167 408.798 55.946C408.85 56.2753 408.781 56.5787 408.59 56.856C408.399 57.116 408.139 57.272 407.81 57.324C407.498 57.376 407.203 57.3067 406.926 57.116ZM422.708 71.416C422.413 71.5547 422.101 71.5633 421.772 71.442C421.46 71.338 421.235 71.1387 421.096 70.844C420.957 70.5493 420.94 70.246 421.044 69.934C421.165 69.6047 421.373 69.3707 421.668 69.232C423.575 68.348 425.048 67.1953 426.088 65.774C427.145 64.3527 427.821 62.5673 428.116 60.418H419.952C419.623 60.418 419.337 60.3053 419.094 60.08C418.869 59.8373 418.756 59.5513 418.756 59.222C418.756 58.8927 418.869 58.6153 419.094 58.39C419.337 58.1473 419.623 58.026 419.952 58.026H428.298V57.558C428.298 56.726 428.289 55.8853 428.272 55.036C428.255 54.1867 428.211 53.4413 428.142 52.8C428.107 52.4707 428.185 52.176 428.376 51.916C428.584 51.656 428.853 51.5 429.182 51.448C429.511 51.4133 429.806 51.5 430.066 51.708C430.343 51.8987 430.491 52.1587 430.508 52.488C430.595 53.216 430.647 54.0307 430.664 54.932C430.681 55.8333 430.69 56.7173 430.69 57.584V58.026H437.788C438.135 58.026 438.421 58.1473 438.646 58.39C438.889 58.6153 439.01 58.8927 439.01 59.222C439.01 59.5513 438.889 59.8373 438.646 60.08C438.421 60.3053 438.135 60.418 437.788 60.418H430.534C429.858 65.618 427.249 69.284 422.708 71.416ZM446.914 62.498C446.585 62.498 446.299 62.3853 446.056 62.16C445.831 61.9173 445.718 61.6313 445.718 61.302C445.718 60.9553 445.831 60.6693 446.056 60.444C446.299 60.2187 446.585 60.106 446.914 60.106H463.112C463.441 60.106 463.719 60.2187 463.944 60.444C464.187 60.6693 464.308 60.9553 464.308 61.302C464.308 61.6313 464.187 61.9173 463.944 62.16C463.719 62.3853 463.441 62.498 463.112 62.498H446.914Z" fill="#FCFDFE"/>
<rect width="120" height="120" rx="60" fill="#F1BC6A"/>
<rect x="9.5" y="9.5" width="101" height="101" rx="50.5" fill="#F1BC6A"/>
<rect x="9.5" y="9.5" width="101" height="101" rx="50.5" stroke="#FCFDFE" stroke-dasharray="5 5"/>
<path d="M60.9641 76C59.9321 76 59.4161 75.424 59.4161 74.272V54.724L56.1041 56.812C55.1201 57.46 54.3761 57.34 53.8721 56.452C53.2961 55.564 53.5001 54.82 54.4841 54.22L59.1641 51.34C59.8121 50.932 60.5081 50.728 61.2521 50.728C62.0681 50.728 62.4761 51.304 62.4761 52.456V74.272C62.4761 75.424 61.9721 76 60.9641 76Z" fill="#FCFDFE"/>
</svg>
