<svg width="570" height="121" viewBox="0 0 570 121" fill="none" xmlns="http://www.w3.org/2000/svg">
<path d="M546.565 60.3671L570 110.364H70L93.4351 60.3671L70 10.3638H570L546.565 60.3671Z" fill="#F1BC6A"/>
<path d="M548.438 32.0308L550.312 28.6987V28.6978L549.877 28.4526L551.752 25.1187L552.188 25.3638V25.3647L554.062 22.0308H554.062L553.627 21.7856L554.146 20.8638H553V20.3638H549V20.8638H545V20.3638H541V20.8638H537V20.3638H533V20.8638H529V20.3638H525V20.8638H521V20.3638H517V20.8638H513V20.3638H509V20.8638H505V20.3638H501V20.8638H497V20.3638H493V20.8638H489V20.3638H485V20.8638H481V20.3638H477V20.8638H473V20.3638H469V20.8638H465V20.3638H461V20.8638H457V20.3638H453V20.8638H449V20.3638H445V20.8638H441V20.3638H437V20.8638H433V20.3638H429V20.8638H425V20.3638H421V20.8638H417V20.3638H413V20.8638H409V20.3638H405V20.8638H401V20.3638H397V20.8638H393V20.3638H389V20.8638H385V20.3638H381V20.8638H377V20.3638H373V20.8638H369V20.3638H365V20.8638H361V20.3638H357V20.8638H353V20.3638H349V20.8638H345V20.3638H341V20.8638H337V20.3638H333V20.8638H329V20.3638H325V20.8638H321V20.3638H317V20.8638H313V20.3638H309V20.8638H305V20.3638H301V20.8638H297V20.3638H293V20.8638H289V20.3638H285V20.8638H281V20.3638H277V20.8638H273V20.3638H269V20.8638H265V20.3638H261V20.8638H257V20.3638H253V20.8638H249V20.3638H245V20.8638H241V20.3638H237V20.8638H233V20.3638H229V20.8638H225V20.3638H221V20.8638H217V20.3638H213V20.8638H209V20.3638H205V20.8638H201V20.3638H197V20.8638H193V20.3638H189V20.8638H185V20.3638H181V20.8638H177V20.3638H173V20.8638H169V20.3638H165V20.8638H161V20.3638H157V20.8638H153V20.3638H149V20.8638H145V20.3638H141V20.8638H137V20.3638H133V20.8638H129V20.3638H125V20.8638H121V20.3638H117V20.8638H113V20.3638H109V20.8638H105V20.3638H101V20.8638H97V20.3638H93V20.8638H89V20.3638H85V20.8638H81V20.3638H77V20.8638H75.8545L76.373 21.7856L75.9375 22.0308L77.8115 25.3647L77.8125 25.3638L78.248 25.1187L80.123 28.4526L79.6875 28.6978L79.6865 28.6987L81.5615 32.0308L81.998 31.7856L83.8721 35.1196L83.4365 35.3647L85.3115 38.6987L85.7471 38.4536L87.6221 41.7866L87.1865 42.0317L87.1855 42.0327L89.0605 45.3667L89.0615 45.3657L89.4971 45.1206L91.3721 48.4536L90.9355 48.6987L92.8105 52.0327L93.2461 51.7876L95.1211 55.1206L94.6855 55.3657L94.6846 55.3667L96.5596 58.7007L96.5605 58.6997L96.9961 58.4546L97.9336 60.1216L98.0713 60.3667L97.9336 60.6118L96.9961 62.2778L96.5605 62.0337L94.6855 65.3667L95.1211 65.6108L93.2461 68.9438L92.8105 68.6997L90.9355 72.0337L91.3721 72.2778L89.4971 75.6108L89.0605 75.3657L87.1855 78.6987L87.6221 78.9438L85.7471 82.2769L85.3115 82.0327L83.4365 85.3657L83.8721 85.6099L81.998 88.9429L81.5615 88.6987L79.6865 92.0308L80.123 92.2759L78.248 95.6089L77.8115 95.3638L75.9375 98.6978L76.373 98.9419L75.8545 99.8638H77V100.364H81V99.8638H85V100.364H89V99.8638H93V100.364H97V99.8638H101V100.364H105V99.8638H109V100.364H113V99.8638H117V100.364H121V99.8638H125V100.364H129V99.8638H133V100.364H137V99.8638H141V100.364H145V99.8638H149V100.364H153V99.8638H157V100.364H161V99.8638H165V100.364H169V99.8638H173V100.364H177V99.8638H181V100.364H185V99.8638H189V100.364H193V99.8638H197V100.364H201V99.8638H205V100.364H209V99.8638H213V100.364H217V99.8638H221V100.364H225V99.8638H229V100.364H233V99.8638H237V100.364H241V99.8638H245V100.364H249V99.8638H253V100.364H257V99.8638H261V100.364H265V99.8638H269V100.364H273V99.8638H277V100.364H281V99.8638H285V100.364H289V99.8638H293V100.364H297V99.8638H301V100.364H305V99.8638H309V100.364H313V99.8638H317V100.364H321V99.8638H325V100.364H329V99.8638H333V100.364H337V99.8638H341V100.364H345V99.8638H349V100.364H353V99.8638H357V100.364H361V99.8638H365V100.364H369V99.8638H373V100.364H377V99.8638H381V100.364H385V99.8638H389V100.364H393V99.8638H397V100.364H401V99.8638H405V100.364H409V99.8638H413V100.364H417V99.8638H421V100.364H425V99.8638H429V100.364H433V99.8638H437V100.364H441V99.8638H445V100.364H449V99.8638H453V100.364H457V99.8638H461V100.364H465V99.8638H469V100.364H473V99.8638H477V100.364H481V99.8638H485V100.364H489V99.8638H493V100.364H497V99.8638H501V100.364H505V99.8638H509V100.364H513V99.8638H517V100.364H521V99.8638H525V100.364H529V99.8638H533V100.364H537V99.8638H541V100.364H545V99.8638H549V100.364H553V99.8638H554.146L553.627 98.9419L554.062 98.6978L552.188 95.3638L551.752 95.6089L549.877 92.2759L550.312 92.0308L548.438 88.6987L548.002 88.9429L546.128 85.6099L546.562 85.3657L544.688 82.0327L544.253 82.2769L542.378 78.9438L542.813 78.6987L540.938 75.3657L540.503 75.6108L538.628 72.2778L539.063 72.0337L537.188 68.6997L536.754 68.9438L534.879 65.6108L535.313 65.3667L533.438 62.0337L533.004 62.2778L532.066 60.6118L531.929 60.3667L532.066 60.1216L533.004 58.4546L533.439 58.6997V58.7007L535.314 55.3667V55.3657L534.879 55.1206L536.754 51.7876L537.188 52.0327L539.063 48.6987H539.064L538.628 48.4536L540.503 45.1206L540.938 45.3657V45.3667L542.813 42.0327V42.0317L542.378 41.7866L544.253 38.4536L544.688 38.6987L546.562 35.3647H546.563L546.128 35.1196L548.002 31.7856L548.438 32.0308Z" fill="#F1BC6A" stroke="#FCFDFE" stroke-dasharray="4 4"/>
<path d="M135.33 70.6358C135.053 70.8091 134.749 70.8611 134.42 70.7918C134.108 70.7051 133.857 70.5231 133.666 70.2458C133.493 69.9511 133.441 69.6478 133.51 69.3358C133.597 69.0064 133.779 68.7551 134.056 68.5818C135.772 67.5591 137.375 66.3978 138.866 65.0978C140.374 63.7978 141.735 62.4111 142.948 60.9378C142.203 60.4351 141.483 59.9671 140.79 59.5338C140.097 59.1004 139.49 58.7538 138.97 58.4938C138.675 58.3551 138.467 58.1298 138.346 57.8178C138.225 57.5058 138.233 57.2024 138.372 56.9078C138.511 56.5958 138.745 56.3964 139.074 56.3098C139.403 56.2231 139.715 56.2491 140.01 56.3878C140.669 56.6998 141.371 57.0811 142.116 57.5318C142.879 57.9824 143.65 58.4764 144.43 59.0138C145.019 58.1818 145.565 57.3324 146.068 56.4658C146.588 55.5991 147.047 54.7151 147.446 53.8138C147.585 53.5191 147.81 53.3111 148.122 53.1898C148.451 53.0684 148.763 53.0771 149.058 53.2158C149.353 53.3544 149.561 53.5884 149.682 53.9178C149.803 54.2298 149.795 54.5331 149.656 54.8278C149.223 55.7464 148.72 56.6738 148.148 57.6098C147.593 58.5458 146.978 59.4731 146.302 60.3918C147.099 60.9811 147.845 61.5791 148.538 62.1858C149.249 62.7924 149.847 63.3471 150.332 63.8498C150.575 64.0751 150.687 64.3611 150.67 64.7078C150.67 65.0544 150.549 65.3491 150.306 65.5918C150.046 65.8171 149.743 65.9298 149.396 65.9298C149.067 65.9298 148.781 65.7998 148.538 65.5398C148.105 65.0718 147.559 64.5604 146.9 64.0058C146.241 63.4338 145.539 62.8704 144.794 62.3158C143.459 63.9104 141.986 65.4271 140.374 66.8658C138.762 68.2871 137.081 69.5438 135.33 70.6358ZM162.682 70.0898C162.37 70.2111 162.067 70.2024 161.772 70.0638C161.477 69.9251 161.269 69.6998 161.148 69.3878C161.027 69.0758 161.035 68.7724 161.174 68.4778C161.33 68.1658 161.564 67.9491 161.876 67.8278C163.297 67.3078 164.719 66.6924 166.14 65.9818C167.561 65.2538 168.922 64.4738 170.222 63.6418C171.539 62.7924 172.727 61.9171 173.784 61.0158C174.859 60.1144 175.751 59.2304 176.462 58.3638C176.67 58.1038 176.939 57.9651 177.268 57.9478C177.597 57.9131 177.892 57.9998 178.152 58.2078C178.412 58.4158 178.559 58.6844 178.594 59.0138C178.629 59.3431 178.542 59.6378 178.334 59.8978C177.641 60.7471 176.705 61.6571 175.526 62.6278C174.347 63.5984 173.039 64.5604 171.6 65.5138C170.161 66.4498 168.671 67.3164 167.128 68.1138C165.603 68.9111 164.121 69.5698 162.682 70.0898ZM165.334 60.0018C164.918 59.6378 164.441 59.2564 163.904 58.8578C163.384 58.4591 162.855 58.0778 162.318 57.7138C161.798 57.3498 161.321 57.0378 160.888 56.7778C160.611 56.6044 160.429 56.3618 160.342 56.0498C160.255 55.7204 160.299 55.4171 160.472 55.1398C160.645 54.8451 160.897 54.6544 161.226 54.5678C161.555 54.4811 161.859 54.5331 162.136 54.7238C162.569 55.0011 163.081 55.3564 163.67 55.7898C164.277 56.2058 164.866 56.6304 165.438 57.0638C166.01 57.4798 166.469 57.8264 166.816 58.1038C167.076 58.3118 167.223 58.5804 167.258 58.9098C167.31 59.2391 167.232 59.5338 167.024 59.7938C166.833 60.0538 166.565 60.2098 166.218 60.2618C165.889 60.3138 165.594 60.2271 165.334 60.0018ZM188.11 72.1178C187.798 72.2391 187.486 72.2391 187.174 72.1178C186.879 72.0138 186.663 71.8058 186.524 71.4938C186.385 71.1991 186.377 70.8958 186.498 70.5838C186.619 70.2718 186.836 70.0464 187.148 69.9078C189.055 69.0931 190.762 68.1658 192.27 67.1258C193.795 66.0684 195.147 64.9071 196.326 63.6418C195.841 63.1911 195.381 62.7664 194.948 62.3678C194.532 61.9691 194.151 61.6398 193.804 61.3798C193.544 61.1544 193.397 60.8771 193.362 60.5478C193.327 60.2184 193.414 59.9324 193.622 59.6898C193.83 59.4298 194.099 59.2824 194.428 59.2478C194.757 59.1958 195.052 59.2738 195.312 59.4818C195.693 59.8111 196.101 60.1664 196.534 60.5478C196.985 60.9291 197.435 61.3191 197.886 61.7178C198.285 61.1631 198.657 60.5998 199.004 60.0278C199.351 59.4558 199.671 58.8578 199.966 58.2338C200.278 57.5751 200.347 57.0811 200.174 56.7518C200.018 56.4224 199.585 56.2578 198.874 56.2578H194.688C194.116 57.0204 193.483 57.7831 192.79 58.5458C192.097 59.3084 191.395 60.0191 190.684 60.6778C189.973 61.3364 189.297 61.8911 188.656 62.3418C188.379 62.5151 188.075 62.5758 187.746 62.5238C187.434 62.4718 187.183 62.3071 186.992 62.0298C186.801 61.7524 186.732 61.4491 186.784 61.1198C186.836 60.7904 187.001 60.5391 187.278 60.3658C188.353 59.6031 189.358 58.7624 190.294 57.8438C191.247 56.9078 192.088 55.9284 192.816 54.9058C193.561 53.8831 194.159 52.8691 194.61 51.8638C194.749 51.5691 194.974 51.3611 195.286 51.2398C195.598 51.1184 195.901 51.1271 196.196 51.2658C196.491 51.3871 196.699 51.6038 196.82 51.9158C196.941 52.2278 196.933 52.5398 196.794 52.8518C196.725 53.0251 196.638 53.1984 196.534 53.3718C196.447 53.5451 196.352 53.7271 196.248 53.9178H198.874C200.763 53.9178 201.968 54.4118 202.488 55.3998C203.025 56.3878 202.904 57.6878 202.124 59.2998C201.795 59.9931 201.413 60.6778 200.98 61.3538C200.564 62.0298 200.105 62.6884 199.602 63.3298C200.001 63.7284 200.373 64.1184 200.72 64.4998C201.084 64.8638 201.405 65.2191 201.682 65.5658C201.907 65.8431 202.003 66.1551 201.968 66.5018C201.933 66.8484 201.777 67.1344 201.5 67.3598C201.223 67.5678 200.911 67.6544 200.564 67.6198C200.235 67.5678 199.957 67.4118 199.732 67.1518C199.489 66.8744 199.212 66.5711 198.9 66.2418C198.605 65.9124 198.293 65.5831 197.964 65.2538C196.629 66.6751 195.121 67.9751 193.44 69.1538C191.776 70.3151 189.999 71.3031 188.11 72.1178ZM227.266 67.7238C225.931 68.2091 224.735 68.4171 223.678 68.3478C222.638 68.2784 221.823 67.8884 221.234 67.1778C220.645 66.4671 220.35 65.3924 220.35 63.9538V55.9718C220.35 55.6251 220.463 55.3391 220.688 55.1138C220.931 54.8711 221.217 54.7498 221.546 54.7498C221.893 54.7498 222.179 54.8711 222.404 55.1138C222.647 55.3391 222.768 55.6251 222.768 55.9718V63.9538C222.768 64.8724 223.063 65.4704 223.652 65.7478C224.241 66.0251 225.16 65.9298 226.408 65.4618C227.361 65.1151 228.306 64.7338 229.242 64.3178C230.178 63.9018 230.993 63.5118 231.686 63.1478C231.981 62.9918 232.284 62.9658 232.596 63.0698C232.925 63.1738 233.168 63.3731 233.324 63.6678C233.463 63.9451 233.48 64.2484 233.376 64.5778C233.289 64.8898 233.099 65.1238 232.804 65.2798C231.989 65.7131 231.088 66.1464 230.1 66.5798C229.129 66.9958 228.185 67.3771 227.266 67.7238ZM210.418 69.2838C210.123 69.4224 209.82 69.4311 209.508 69.3098C209.196 69.1884 208.971 68.9804 208.832 68.6858C208.711 68.3738 208.711 68.0618 208.832 67.7498C208.953 67.4378 209.161 67.2211 209.456 67.0998C210.981 66.4238 212.169 65.5831 213.018 64.5778C213.867 63.5551 214.465 62.4284 214.812 61.1978C215.159 59.9671 215.332 58.6931 215.332 57.3758C215.332 57.0464 215.453 56.7691 215.696 56.5438C215.939 56.3011 216.225 56.1798 216.554 56.1798C216.883 56.1798 217.161 56.3011 217.386 56.5438C217.629 56.7691 217.75 57.0464 217.75 57.3758C217.75 59.1958 217.455 60.8858 216.866 62.4458C216.277 64.0058 215.436 65.3664 214.344 66.5278C213.252 67.6891 211.943 68.6078 210.418 69.2838ZM256.282 68.1918C255.745 67.6718 255.069 67.0651 254.254 66.3718C253.439 65.6611 252.581 64.9331 251.68 64.1878C250.779 63.4251 249.903 62.7058 249.054 62.0298C248.205 61.3364 247.468 60.7558 246.844 60.2878C246.307 59.8718 245.83 59.5944 245.414 59.4558C244.998 59.3171 244.565 59.3084 244.114 59.4298C243.663 59.5511 243.117 59.7938 242.476 60.1578C242.008 60.4351 241.445 60.7731 240.786 61.1718C240.145 61.5704 239.521 61.9604 238.914 62.3418C238.325 62.7058 237.857 62.9918 237.51 63.1998C237.233 63.3731 236.929 63.4164 236.6 63.3298C236.271 63.2431 236.019 63.0611 235.846 62.7838C235.673 62.4891 235.621 62.1944 235.69 61.8998C235.777 61.5878 235.959 61.3451 236.236 61.1718C236.496 61.0158 236.843 60.8078 237.276 60.5478C237.727 60.2704 238.203 59.9844 238.706 59.6898C239.209 59.3778 239.694 59.0918 240.162 58.8318C240.63 58.5544 241.02 58.3291 241.332 58.1558C242.303 57.6184 243.135 57.2718 243.828 57.1158C244.539 56.9424 245.232 56.9598 245.908 57.1678C246.584 57.3758 247.347 57.7918 248.196 58.4158C248.647 58.7451 249.201 59.1611 249.86 59.6638C250.519 60.1664 251.221 60.7211 251.966 61.3278C252.711 61.9171 253.457 62.5238 254.202 63.1478C254.965 63.7718 255.675 64.3698 256.334 64.9418C256.993 65.4964 257.547 65.9904 257.998 66.4238C258.241 66.6491 258.362 66.9351 258.362 67.2818C258.379 67.6284 258.267 67.9231 258.024 68.1658C257.799 68.4084 257.513 68.5384 257.166 68.5558C256.819 68.5558 256.525 68.4344 256.282 68.1918ZM279.266 67.7238C277.931 68.2091 276.735 68.4171 275.678 68.3478C274.638 68.2784 273.823 67.8884 273.234 67.1778C272.645 66.4671 272.35 65.3924 272.35 63.9538V55.9718C272.35 55.6251 272.463 55.3391 272.688 55.1138C272.931 54.8711 273.217 54.7498 273.546 54.7498C273.893 54.7498 274.179 54.8711 274.404 55.1138C274.647 55.3391 274.768 55.6251 274.768 55.9718V63.9538C274.768 64.8724 275.063 65.4704 275.652 65.7478C276.241 66.0251 277.16 65.9298 278.408 65.4618C279.361 65.1151 280.306 64.7338 281.242 64.3178C282.178 63.9018 282.993 63.5118 283.686 63.1478C283.981 62.9918 284.284 62.9658 284.596 63.0698C284.925 63.1738 285.168 63.3731 285.324 63.6678C285.463 63.9451 285.48 64.2484 285.376 64.5778C285.289 64.8898 285.099 65.1238 284.804 65.2798C283.989 65.7131 283.088 66.1464 282.1 66.5798C281.129 66.9958 280.185 67.3771 279.266 67.7238ZM262.418 69.2838C262.123 69.4224 261.82 69.4311 261.508 69.3098C261.196 69.1884 260.971 68.9804 260.832 68.6858C260.711 68.3738 260.711 68.0618 260.832 67.7498C260.953 67.4378 261.161 67.2211 261.456 67.0998C262.981 66.4238 264.169 65.5831 265.018 64.5778C265.867 63.5551 266.465 62.4284 266.812 61.1978C267.159 59.9671 267.332 58.6931 267.332 57.3758C267.332 57.0464 267.453 56.7691 267.696 56.5438C267.939 56.3011 268.225 56.1798 268.554 56.1798C268.883 56.1798 269.161 56.3011 269.386 56.5438C269.629 56.7691 269.75 57.0464 269.75 57.3758C269.75 59.1958 269.455 60.8858 268.866 62.4458C268.277 64.0058 267.436 65.3664 266.344 66.5278C265.252 67.6891 263.943 68.6078 262.418 69.2838ZM290.654 70.5318C290.359 70.6704 290.047 70.6878 289.718 70.5838C289.406 70.4624 289.181 70.2544 289.042 69.9598C288.903 69.6651 288.886 69.3618 288.99 69.0498C289.094 68.7204 289.293 68.4864 289.588 68.3478C292.119 67.1344 294.389 65.6351 296.4 63.8498C298.428 62.0471 300.049 60.0798 301.262 57.9478C302.025 56.5958 301.513 55.9198 299.728 55.9198H292.396C292.067 55.9198 291.781 55.7984 291.538 55.5558C291.313 55.3131 291.2 55.0271 291.2 54.6978C291.2 54.3684 291.313 54.0911 291.538 53.8658C291.781 53.6231 292.067 53.5018 292.396 53.5018H299.728C301.115 53.5018 302.172 53.7444 302.9 54.2298C303.645 54.7151 304.053 55.3824 304.122 56.2318C304.209 57.0811 303.94 58.0518 303.316 59.1438C303.073 59.5598 302.805 59.9844 302.51 60.4178C302.233 60.8338 301.929 61.2584 301.6 61.6918C302.432 62.3504 303.29 63.0958 304.174 63.9278C305.058 64.7424 305.89 65.5398 306.67 66.3198C307.45 67.0998 308.083 67.7584 308.568 68.2958C308.811 68.5211 308.932 68.7984 308.932 69.1278C308.932 69.4571 308.811 69.7431 308.568 69.9858C308.325 70.2111 308.039 70.3238 307.71 70.3238C307.381 70.3238 307.095 70.2024 306.852 69.9598C306.505 69.6131 306.072 69.1711 305.552 68.6338C305.032 68.0791 304.46 67.4984 303.836 66.8918C303.212 66.2678 302.579 65.6524 301.938 65.0458C301.314 64.4391 300.716 63.8931 300.144 63.4078C298.844 64.8291 297.379 66.1551 295.75 67.3858C294.121 68.6164 292.422 69.6651 290.654 70.5318ZM322.53 73.2878C321.265 73.2878 320.277 73.1578 319.566 72.8978C318.873 72.6378 318.379 72.2044 318.084 71.5978C317.807 71.0084 317.668 70.1938 317.668 69.1538C317.668 68.1138 317.807 67.2904 318.084 66.6838C318.379 66.0771 318.873 65.6438 319.566 65.3838C320.277 65.1238 321.265 64.9938 322.53 64.9938H324.428C324.064 64.9071 323.83 64.6818 323.726 64.3178C323.605 64.0058 323.613 63.7198 323.752 63.4598C323.908 63.1998 324.177 63.0091 324.558 62.8878C325.511 62.5584 326.369 62.1684 327.132 61.7178C327.912 61.2671 328.597 60.7731 329.186 60.2358C328.77 59.7331 328.38 59.2131 328.016 58.6758C327.669 58.1211 327.349 57.5578 327.054 56.9858C326.898 57.2111 326.742 57.4364 326.586 57.6618C326.43 57.8871 326.283 58.1038 326.144 58.3118C325.971 58.5544 325.737 58.7191 325.442 58.8058C325.147 58.8924 324.861 58.8491 324.584 58.6758C324.463 58.6064 324.367 58.5111 324.298 58.3898C324.229 59.4298 323.925 60.1404 323.388 60.5218C322.868 60.9031 321.932 61.0938 320.58 61.0938H316.862C316.602 63.1911 315.883 64.9938 314.704 66.5018C314.496 66.7444 314.219 66.9004 313.872 66.9698C313.543 67.0391 313.231 66.9698 312.936 66.7618C312.676 66.5711 312.529 66.3198 312.494 66.0078C312.477 65.6784 312.555 65.4011 312.728 65.1758C313.456 64.2571 313.967 63.3124 314.262 62.3418C314.557 61.3711 314.704 60.2964 314.704 59.1178V58.1038C314.704 57.2544 314.817 56.5871 315.042 56.1018C315.267 55.5991 315.666 55.2438 316.238 55.0358C316.81 54.8104 317.616 54.6978 318.656 54.6978H320.58C321.915 54.6978 322.842 54.8798 323.362 55.2438C323.899 55.6078 324.203 56.2838 324.272 57.2718H324.298C324.766 56.6651 325.234 55.9371 325.702 55.0878C326.187 54.2211 326.621 53.3458 327.002 52.4618C327.401 51.5778 327.704 50.8151 327.912 50.1738C327.999 49.8791 328.189 49.6711 328.484 49.5498C328.779 49.4111 329.073 49.4024 329.368 49.5238C329.663 49.6278 329.862 49.8098 329.966 50.0698C330.087 50.3124 330.105 50.5811 330.018 50.8758C329.897 51.2398 329.749 51.6211 329.576 52.0198C329.42 52.4184 329.247 52.8258 329.056 53.2418H336.024C336.319 53.2418 336.561 53.3458 336.752 53.5538C336.943 53.7444 337.038 53.9784 337.038 54.2558C337.038 54.5331 336.943 54.7758 336.752 54.9838C336.561 55.1918 336.319 55.2958 336.024 55.2958H334.568C334.083 57.0984 333.285 58.7278 332.176 60.1838C333.476 61.2931 334.958 62.2204 336.622 62.9658C336.899 63.0871 337.081 63.3124 337.168 63.6418C337.272 63.9538 337.255 64.2484 337.116 64.5258C336.943 64.8204 336.683 65.0111 336.336 65.0978C336.007 65.1844 335.686 65.1584 335.374 65.0198C333.658 64.2224 332.098 63.1564 330.694 61.8218C329.966 62.4978 329.151 63.1044 328.25 63.6418C327.366 64.1791 326.387 64.6211 325.312 64.9678C325.295 64.9678 325.277 64.9764 325.26 64.9938C325.243 64.9938 325.217 64.9938 325.182 64.9938H327.626C328.891 64.9938 329.879 65.1238 330.59 65.3838C331.301 65.6438 331.795 66.0771 332.072 66.6838C332.367 67.2904 332.514 68.1138 332.514 69.1538C332.514 70.1938 332.367 71.0084 332.072 71.5978C331.795 72.2044 331.301 72.6378 330.59 72.8978C329.879 73.1578 328.891 73.2878 327.626 73.2878H322.53ZM322.53 71.2078H327.626C328.337 71.2078 328.874 71.1558 329.238 71.0518C329.602 70.9304 329.845 70.7224 329.966 70.4278C330.105 70.1331 330.174 69.7084 330.174 69.1538C330.174 68.5991 330.105 68.1744 329.966 67.8798C329.845 67.5851 329.602 67.3858 329.238 67.2818C328.874 67.1604 328.337 67.0998 327.626 67.0998H322.53C321.837 67.0998 321.299 67.1604 320.918 67.2818C320.554 67.3858 320.303 67.5851 320.164 67.8798C320.043 68.1744 319.982 68.5991 319.982 69.1538C319.982 69.7084 320.043 70.1331 320.164 70.4278C320.303 70.7224 320.554 70.9304 320.918 71.0518C321.299 71.1558 321.837 71.2078 322.53 71.2078ZM314.288 52.9298C314.011 52.9298 313.768 52.8258 313.56 52.6178C313.352 52.4098 313.248 52.1584 313.248 51.8638C313.248 51.5691 313.352 51.3264 313.56 51.1358C313.768 50.9278 314.011 50.8238 314.288 50.8238H324.48C324.775 50.8238 325.026 50.9278 325.234 51.1358C325.442 51.3264 325.546 51.5691 325.546 51.8638C325.546 52.1584 325.442 52.4098 325.234 52.6178C325.026 52.8258 324.775 52.9298 324.48 52.9298H314.288ZM316.992 59.1438H320.476C321.083 59.1438 321.49 59.0658 321.698 58.9098C321.923 58.7364 322.036 58.3984 322.036 57.8958C322.036 57.3931 321.923 57.0638 321.698 56.9078C321.49 56.7344 321.083 56.6478 320.476 56.6478H318.656C317.963 56.6478 317.512 56.7431 317.304 56.9338C317.096 57.1071 316.992 57.4971 316.992 58.1038V59.1438ZM330.616 58.6238C330.997 58.1038 331.327 57.5664 331.604 57.0118C331.881 56.4571 332.115 55.8851 332.306 55.2958H328.458C328.753 55.9024 329.073 56.4831 329.42 57.0378C329.784 57.5924 330.183 58.1211 330.616 58.6238ZM341.25 73.2098C340.418 73.3831 339.907 73.1318 339.716 72.4558C339.612 72.1438 339.655 71.8491 339.846 71.5718C340.037 71.3118 340.305 71.1558 340.652 71.1038C342.611 70.7571 344.093 70.1764 345.098 69.3618C346.103 68.5471 346.736 67.3858 346.996 65.8778H341.562C341.267 65.8778 341.007 65.7738 340.782 65.5658C340.574 65.3578 340.47 65.1064 340.47 64.8118C340.47 64.5171 340.574 64.2658 340.782 64.0578C341.007 63.8324 341.267 63.7198 341.562 63.7198H347.178V60.7298H345.488C345.193 60.7298 344.942 60.6258 344.734 60.4178C344.526 60.2098 344.413 59.9584 344.396 59.6638C343.113 60.7038 341.796 61.5618 340.444 62.2378C340.132 62.3938 339.82 62.4284 339.508 62.3418C339.196 62.2378 338.962 62.0298 338.806 61.7178C338.685 61.4404 338.685 61.1631 338.806 60.8858C338.927 60.5911 339.144 60.3744 339.456 60.2358C340.201 59.8891 340.938 59.4818 341.666 59.0138C342.411 58.5284 343.105 58.0171 343.746 57.4798C343.365 57.1504 342.914 56.7778 342.394 56.3618C341.891 55.9284 341.467 55.5904 341.12 55.3478C340.895 55.1744 340.773 54.9404 340.756 54.6458C340.739 54.3511 340.825 54.0998 341.016 53.8918C341.224 53.6838 341.467 53.5624 341.744 53.5278C342.039 53.4931 342.307 53.5711 342.55 53.7618C342.775 53.9351 343.053 54.1604 343.382 54.4378C343.729 54.7151 344.075 54.9924 344.422 55.2698C344.786 55.5471 345.089 55.7984 345.332 56.0238C346.043 55.2784 346.632 54.5591 347.1 53.8658C347.603 53.1031 347.36 52.7218 346.372 52.7218H342.342C342.082 52.7218 341.857 52.6264 341.666 52.4358C341.475 52.2278 341.38 51.9851 341.38 51.7078C341.38 51.4304 341.475 51.1964 341.666 51.0058C341.857 50.7978 342.082 50.6938 342.342 50.6938H346.944C347.828 50.6938 348.513 50.8671 348.998 51.2138C349.501 51.5431 349.778 51.9938 349.83 52.5658C349.882 53.1204 349.683 53.7358 349.232 54.4118C348.313 55.8158 347.143 57.1764 345.722 58.4938H356.434C354.181 56.5178 352.439 54.1604 351.208 51.4218C351.104 51.1618 351.104 50.9104 351.208 50.6678C351.312 50.4078 351.485 50.2171 351.728 50.0958C351.988 49.9571 352.274 49.9311 352.586 50.0178C352.898 50.1044 353.115 50.2778 353.236 50.5378C353.461 50.9711 353.687 51.4044 353.912 51.8378C354.155 52.2711 354.406 52.6958 354.666 53.1118C354.978 52.8691 355.307 52.6091 355.654 52.3318C356.001 52.0371 356.33 51.7511 356.642 51.4738C356.954 51.1964 357.197 50.9711 357.37 50.7978C357.595 50.6071 357.847 50.5118 358.124 50.5118C358.419 50.4944 358.67 50.5898 358.878 50.7978C359.103 51.0058 359.216 51.2571 359.216 51.5518C359.216 51.8464 359.112 52.0891 358.904 52.2798C358.679 52.4878 358.384 52.7391 358.02 53.0338C357.656 53.3284 357.283 53.6318 356.902 53.9438C356.521 54.2384 356.183 54.5071 355.888 54.7498C356.096 55.0098 356.313 55.2611 356.538 55.5038C356.781 55.7464 357.023 55.9891 357.266 56.2318C357.561 56.0064 357.899 55.7378 358.28 55.4258C358.661 55.1138 359.025 54.8018 359.372 54.4898C359.736 54.1778 360.022 53.9264 360.23 53.7358C360.438 53.5278 360.689 53.4238 360.984 53.4238C361.279 53.4064 361.53 53.5018 361.738 53.7098C361.946 53.9178 362.05 54.1691 362.05 54.4638C362.067 54.7584 361.963 55.0011 361.738 55.1918C361.409 55.4864 360.958 55.8678 360.386 56.3358C359.831 56.8038 359.329 57.2198 358.878 57.5838C359.415 57.9824 359.996 58.3724 360.62 58.7538C361.244 59.1178 361.911 59.4644 362.622 59.7938C362.917 59.9324 363.099 60.1578 363.168 60.4698C363.255 60.7818 363.22 61.0851 363.064 61.3798C362.891 61.6744 362.631 61.8564 362.284 61.9258C361.955 61.9951 361.634 61.9431 361.322 61.7698C359.987 61.0764 358.748 60.3051 357.604 59.4558C357.604 59.4731 357.604 59.4991 357.604 59.5338C357.621 59.5511 357.63 59.5771 357.63 59.6118C357.63 59.9238 357.517 60.1924 357.292 60.4178C357.067 60.6258 356.807 60.7298 356.512 60.7298H354.562V63.7198H360.178C360.49 63.7198 360.75 63.8324 360.958 64.0578C361.166 64.2658 361.27 64.5171 361.27 64.8118C361.27 65.1064 361.166 65.3578 360.958 65.5658C360.75 65.7738 360.49 65.8778 360.178 65.8778H354.562V69.1018C354.562 69.8124 354.735 70.2891 355.082 70.5318C355.429 70.7744 356.139 70.8958 357.214 70.8958C358.133 70.8958 358.774 70.7484 359.138 70.4538C359.502 70.1591 359.771 69.6304 359.944 68.8678C360.031 68.5211 360.221 68.2698 360.516 68.1138C360.811 67.9578 361.123 67.9318 361.452 68.0358C361.816 68.1398 362.067 68.3218 362.206 68.5818C362.362 68.8418 362.405 69.1364 362.336 69.4658C362.059 70.8178 361.487 71.7624 360.62 72.2998C359.771 72.8544 358.627 73.1318 357.188 73.1318C355.975 73.1318 355.004 73.0191 354.276 72.7938C353.565 72.5858 353.045 72.1958 352.716 71.6238C352.404 71.0691 352.248 70.2804 352.248 69.2578V65.8778H349.284C349.007 67.9058 348.235 69.5091 346.97 70.6878C345.705 71.8664 343.798 72.7071 341.25 73.2098ZM349.414 63.7198H352.248V60.7298H349.414V63.7198ZM386.126 70.6878C384.098 70.8611 382.391 70.9391 381.004 70.9218C379.617 70.9044 378.465 70.7658 377.546 70.5058C376.645 70.2284 375.891 69.8211 375.284 69.2838C374.747 68.7984 374.348 68.2524 374.088 67.6458C373.828 67.0218 373.655 66.3891 373.568 65.7478C373.499 65.0891 373.464 64.4738 373.464 63.9018V60.1578C372.233 60.3311 371.011 60.5044 369.798 60.6778C368.585 60.8511 367.51 61.0071 366.574 61.1458C366.245 61.1978 365.941 61.1284 365.664 60.9378C365.404 60.7298 365.248 60.4611 365.196 60.1318C365.144 59.8024 365.222 59.5078 365.43 59.2478C365.638 58.9704 365.907 58.8144 366.236 58.7798C367.103 58.6758 368.186 58.5371 369.486 58.3638C370.786 58.1904 372.112 58.0171 373.464 57.8438V53.1898C373.464 52.8604 373.585 52.5831 373.828 52.3578C374.071 52.1151 374.357 52.0024 374.686 52.0198C375.033 52.0198 375.319 52.1411 375.544 52.3838C375.769 52.6091 375.882 52.8864 375.882 53.2158V57.5058C377.009 57.3498 377.997 57.2111 378.846 57.0898C379.713 56.9684 380.302 56.8818 380.614 56.8298C382.313 56.5871 383.561 56.6391 384.358 56.9858C385.173 57.3324 385.693 58.0518 385.918 59.1438C386.143 60.2358 385.857 61.2584 385.06 62.2118C384.263 63.1651 382.859 63.9711 380.848 64.6298C380.536 64.7338 380.224 64.7251 379.912 64.6038C379.617 64.4651 379.418 64.2398 379.314 63.9278C379.193 63.6158 379.201 63.3124 379.34 63.0178C379.479 62.7058 379.704 62.4891 380.016 62.3678C382.443 61.5358 383.604 60.6691 383.5 59.7678C383.448 59.3691 383.266 59.1351 382.954 59.0658C382.659 58.9791 382.018 58.9964 381.03 59.1178C380.631 59.1698 379.964 59.2564 379.028 59.3778C378.109 59.4991 377.061 59.6464 375.882 59.8198V63.9018C375.882 65.6524 376.22 66.8311 376.896 67.4378C377.503 67.9751 378.525 68.3218 379.964 68.4778C381.403 68.6164 383.379 68.5471 385.892 68.2698C386.239 68.2351 386.533 68.3304 386.776 68.5558C387.036 68.7638 387.183 69.0324 387.218 69.3618C387.253 69.6911 387.166 69.9858 386.958 70.2458C386.75 70.5058 386.473 70.6531 386.126 70.6878ZM407.576 71.8838C406.761 71.2251 405.799 70.5491 404.69 69.8558C403.598 69.1451 402.471 68.4778 401.31 67.8538C400.149 67.2298 399.065 66.7011 398.06 66.2678C397.765 66.1291 397.557 65.9038 397.436 65.5918C397.332 65.2798 397.341 64.9678 397.462 64.6558C397.601 64.3611 397.826 64.1531 398.138 64.0318C398.45 63.9104 398.762 63.9191 399.074 64.0578C400.149 64.5431 401.293 65.1238 402.506 65.7998C403.737 66.4758 404.924 67.1778 406.068 67.9058C407.229 68.6338 408.235 69.3271 409.084 69.9858C409.344 70.1938 409.491 70.4711 409.526 70.8178C409.561 71.1471 409.474 71.4418 409.266 71.7018C409.058 71.9444 408.789 72.0831 408.46 72.1178C408.131 72.1698 407.836 72.0918 407.576 71.8838ZM405.288 63.1218C404.907 62.8618 404.395 62.5671 403.754 62.2378C403.13 61.8911 402.463 61.5531 401.752 61.2238C401.041 60.8771 400.357 60.5651 399.698 60.2878C399.039 59.9931 398.485 59.7764 398.034 59.6378C397.722 59.5338 397.488 59.3344 397.332 59.0398C397.193 58.7451 397.176 58.4331 397.28 58.1038C397.367 57.7918 397.557 57.5578 397.852 57.4018C398.164 57.2458 398.476 57.2198 398.788 57.3238C399.325 57.5144 399.949 57.7744 400.66 58.1038C401.388 58.4158 402.125 58.7538 402.87 59.1178C403.633 59.4818 404.343 59.8371 405.002 60.1838C405.661 60.5304 406.198 60.8338 406.614 61.0938C406.891 61.2671 407.065 61.5184 407.134 61.8478C407.203 62.1771 407.143 62.4804 406.952 62.7578C406.779 63.0351 406.527 63.2084 406.198 63.2778C405.886 63.3471 405.583 63.2951 405.288 63.1218ZM406.926 57.4798C406.527 57.1851 406.016 56.8644 405.392 56.5178C404.785 56.1711 404.135 55.8244 403.442 55.4778C402.766 55.1138 402.107 54.7844 401.466 54.4898C400.825 54.1951 400.27 53.9611 399.802 53.7878C399.49 53.6664 399.265 53.4584 399.126 53.1638C398.987 52.8691 398.979 52.5658 399.1 52.2538C399.221 51.9418 399.429 51.7164 399.724 51.5778C400.019 51.4218 400.322 51.4131 400.634 51.5518C401.137 51.7424 401.743 52.0111 402.454 52.3578C403.165 52.6871 403.893 53.0511 404.638 53.4498C405.401 53.8311 406.103 54.2124 406.744 54.5938C407.403 54.9578 407.923 55.2698 408.304 55.5298C408.581 55.7204 408.746 55.9804 408.798 56.3098C408.85 56.6391 408.781 56.9424 408.59 57.2198C408.399 57.4798 408.139 57.6358 407.81 57.6878C407.498 57.7398 407.203 57.6704 406.926 57.4798ZM422.708 71.7798C422.413 71.9184 422.101 71.9271 421.772 71.8058C421.46 71.7018 421.235 71.5024 421.096 71.2078C420.957 70.9131 420.94 70.6098 421.044 70.2978C421.165 69.9684 421.373 69.7344 421.668 69.5958C423.575 68.7118 425.048 67.5591 426.088 66.1378C427.145 64.7164 427.821 62.9311 428.116 60.7818H419.952C419.623 60.7818 419.337 60.6691 419.094 60.4438C418.869 60.2011 418.756 59.9151 418.756 59.5858C418.756 59.2564 418.869 58.9791 419.094 58.7538C419.337 58.5111 419.623 58.3898 419.952 58.3898H428.298V57.9218C428.298 57.0898 428.289 56.2491 428.272 55.3998C428.255 54.5504 428.211 53.8051 428.142 53.1638C428.107 52.8344 428.185 52.5398 428.376 52.2798C428.584 52.0198 428.853 51.8638 429.182 51.8118C429.511 51.7771 429.806 51.8638 430.066 52.0718C430.343 52.2624 430.491 52.5224 430.508 52.8518C430.595 53.5798 430.647 54.3944 430.664 55.2958C430.681 56.1971 430.69 57.0811 430.69 57.9478V58.3898H437.788C438.135 58.3898 438.421 58.5111 438.646 58.7538C438.889 58.9791 439.01 59.2564 439.01 59.5858C439.01 59.9151 438.889 60.2011 438.646 60.4438C438.421 60.6691 438.135 60.7818 437.788 60.7818H430.534C429.858 65.9818 427.249 69.6478 422.708 71.7798ZM446.914 62.8618C446.585 62.8618 446.299 62.7491 446.056 62.5238C445.831 62.2811 445.718 61.9951 445.718 61.6658C445.718 61.3191 445.831 61.0331 446.056 60.8078C446.299 60.5824 446.585 60.4698 446.914 60.4698H463.112C463.441 60.4698 463.719 60.5824 463.944 60.8078C464.187 61.0331 464.308 61.3191 464.308 61.6658C464.308 61.9951 464.187 62.2811 463.944 62.5238C463.719 62.7491 463.441 62.8618 463.112 62.8618H446.914Z" fill="#FCFDFE"/>
<rect y="0.36377" width="120" height="120" rx="60" fill="#F1BC6A"/>
<rect x="9.5" y="9.86377" width="101" height="101" rx="50.5" fill="#F1BC6A"/>
<rect x="9.5" y="9.86377" width="101" height="101" rx="50.5" stroke="#FCFDFE" stroke-dasharray="5 5"/>
<path d="M54.8292 76.3638C53.6772 76.3638 53.1012 76.0278 53.1012 75.3558C53.1012 73.5798 53.6052 71.8758 54.6132 70.2438C55.6452 68.6118 57.1332 66.8718 59.0772 65.0238C59.8932 64.2318 60.6492 63.4518 61.3452 62.6838C62.0652 61.8918 62.6532 61.1118 63.1092 60.3438C63.5652 59.5758 63.8052 58.8318 63.8292 58.1118C63.8772 56.6958 63.5532 55.6398 62.8572 54.9438C62.1612 54.2478 61.1772 53.8998 59.9052 53.8998C59.0172 53.8998 58.2732 54.1638 57.6732 54.6918C57.0732 55.1958 56.6772 55.9278 56.4852 56.8878C56.3412 57.4158 56.1492 57.8238 55.9092 58.1118C55.6692 58.3998 55.2972 58.5438 54.7932 58.5438C54.3132 58.5438 53.9292 58.3878 53.6412 58.0758C53.3772 57.7398 53.2932 57.2838 53.3892 56.7078C53.7012 54.9318 54.4332 53.5278 55.5852 52.4958C56.7612 51.4638 58.2012 50.9478 59.9052 50.9478C61.2972 50.9478 62.5212 51.2358 63.5772 51.8118C64.6572 52.3638 65.4852 53.1798 66.0612 54.2598C66.6612 55.3398 66.9372 56.6478 66.8892 58.1838C66.8652 59.3118 66.5892 60.3678 66.0612 61.3518C65.5332 62.3118 64.8492 63.2478 64.0092 64.1598C63.1692 65.0718 62.2332 66.0318 61.2012 67.0398C60.0492 68.2158 58.9932 69.3558 58.0332 70.4598C57.0972 71.5398 56.5452 72.5598 56.3772 73.5198H64.8012C65.9532 73.5198 66.5292 73.9878 66.5292 74.9238C66.5292 75.8838 65.9532 76.3638 64.8012 76.3638H54.8292Z" fill="#FCFDFE"/>
</svg>
